inDegrees=yes
name=ik_S55_A10_T03
DataType=double
version=3
OpenSimVersion=4.3-2021-08-27-4bc7ad9
endheader
time	pelvis_tilt	pelvis_list	pelvis_rotation	pelvis_tx	pelvis_ty	pelvis_tz	hip_flexion_r	hip_adduction_r	hip_rotation_r	knee_angle_r	knee_angle_r_beta	ankle_angle_r	subtalar_angle_r	mtp_angle_r	hip_flexion_l	hip_adduction_l	hip_rotation_l	knee_angle_l	knee_angle_l_beta	ankle_angle_l	subtalar_angle_l	mtp_angle_l	lumbar_extension	lumbar_bending	lumbar_rotation	arm_flex_r	arm_add_r	arm_rot_r	elbow_flex_r	pro_sup_r	wrist_flex_r	wrist_dev_r	arm_flex_l	arm_add_l	arm_rot_l	elbow_flex_l	pro_sup_l	wrist_flex_l	wrist_dev_l
9.839999999999879	0.7219507949339077	0.07737629158158404	32.24111931883152	0	0.9399999999999999	0	44.91688602965417	-10.00006685798362	-10.00035909131513	54.88813446632682	0.9579786667147836	0	0	0	44.91688602965417	-10.00006685798362	-10.00035909131513	54.88813446632682	0.9579786667147836	0	0	0	0.5011496437400628	0.451530178333178	3.192979644223882	9.34867023237855	-2.512319030516957	10.26865655700791	19.00087358838708	98.24010966206797	0	0	6.222479561662448	-2.458590140615567	-3.103374640330442	16.5829550732211	105.7423828680649	0	0
9.859999999999879	0.6787305165124508	-0.01469236654125925	32.02308193447045	0	0.9399999999999999	0	44.91691825474312	-10.00006676844642	-10.0003587817256	54.88816386101087	0.957979179748803	0	0	0	44.91691825474312	-10.00006676844642	-10.0003587817256	54.88816386101087	0.957979179748803	0	0	0	0.4154886864000323	0.3974277084792038	3.325366465565176	9.556006915504716	-2.394259909261967	11.00636558403163	19.03137343999912	97.61049758558235	0	0	6.617801353885881	-2.526638125699547	-2.523200510291403	16.40071790173313	106.9233049088373	0	0
9.879999999999878	0.6417447601176577	-0.08419454737357231	31.74790337110601	0	0.9399999999999999	0	44.91697031481172	-10.0000666239518	-10.00035828157994	54.88821122777109	0.9579800064547247	0	0	0	44.91697031481172	-10.0000666239518	-10.00035828157994	54.88821122777109	0.9579800064547247	0	0	0	0.3473116127763685	0.3577737417069404	3.342034304403949	9.774585331846717	-2.185984091924071	12.12778523063622	19.67373080758184	97.44238041088356	0	0	7.056797164721533	-2.599142079526956	-1.809667545776761	16.54187012369669	106.9314989483184	0	0
9.899999999999878	0.6304098063066075	-0.1025109581521535	31.53373483089327	0	0.9399999999999999	0	44.91701036431294	-10.00006651198478	-10.00035789505333	54.88824746020139	0.9579806388299296	0	0	0	44.91701036431294	-10.00006651198478	-10.00035789505333	54.88824746020139	0.9579806388299296	0	0	0	0.3284315844124918	0.3477612223596682	3.424468953577725	10.17826492384149	-2.131937783764909	12.78940742001764	20.60009938025673	96.7496802736251	0	0	7.454442189503991	-2.585335108237099	-0.8251733069271397	16.57996319936987	105.7845302770553	0	0
9.919999999999877	0.6248643302191559	-0.1118826717898689	31.38249770293767	0	0.9399999999999999	0	44.91704108769341	-10.00006642614146	-10.00035759859342	54.88827524423673	0.9579811237528256	0	0	0	44.91704108769341	-10.00006642614146	-10.00035759859342	54.88827524423673	0.9579811237528256	0	0	0	0.3186073080756167	0.3429279838219242	3.438017282478941	10.86724986318128	-2.044641089495128	13.22752484424083	20.80115498328609	96.68563349254703	0	0	8.139458816222399	-2.709425150934639	-0.09597807763311497	16.75396689564307	104.7389404461386	0	0
9.939999999999877	0.6435044694016231	-0.08949604208119029	31.04515549364516	0	0.9399999999999999	0	44.91769342206533	-10.00006517805461	-10.00035263268213	54.88904783270682	0.9579946079653917	0	0	0	44.91769342206533	-10.00006517805461	-10.00035263268213	54.88904783270682	0.9579946079653917	0	0	0	0.3461963266255489	0.3489186435792977	3.553506791747776	11.72073177138172	-1.969152600868961	13.83250990244117	20.98547284465578	96.20499817617031	0	0	10.17546076626481	-3.104025399981605	2.070893848360864	16.07799367647759	102.3665843332387	0	0
9.959999999999877	0.6846036048658877	-0.02943805178262338	30.97141797496766	0	0.9399999999999999	0	44.91772835423639	-10.00006508162875	-10.00035229783505	54.88907945822729	0.9579951599348516	0	0	0	44.91772835423639	-10.00006508162875	-10.00035229783505	54.88907945822729	0.9579951599348516	0	0	0	0.4126814765422929	0.3777369597181172	3.458371874913431	12.57888000537646	-1.887906714760585	14.51860227045422	21.32215602057444	95.10191910605302	0	0	10.04314828849142	-3.151516870327407	1.918107631044119	17.12073535588774	102.9676150037779	0	0
9.979999999999876	0.7417013118017013	0.05726889993947539	30.79456222687564	0	0.9399999999999999	0	44.91821559997744	-10.00006415774297	-10.00034860703752	54.88965677118104	0.9580052359467089	0	0	0	44.91821559997744	-10.00006415774297	-10.00034860703752	54.88965677118104	0.9580052359467089	0	0	0	0.5067404982287191	0.4186205780718242	3.568323637509474	13.46026515013352	-1.744172828130881	14.98979873490569	20.38398016694982	94.64309097829116	0	0	11.20066858838592	-3.155215369834107	3.794047993730947	17.44348176240061	101.9714273183367	0	0
9.999999999999876	0.7738028893926332	0.09884722447892631	30.28867613820288	0	0.9399999999999999	0	44.91882752367111	-10.00006300658406	-10.0003439919084	54.89038221223934	0.9580178972817055	0	0	0	44.91882752367111	-10.00006300658406	-10.0003439919084	54.89038221223934	0.9580178972817055	0	0	0	0.5466680251848077	0.4506259426591994	4.010262302021522	14.9825264686384	-1.841651951210788	14.99491938118776	21.85377520434701	93.78223966552505	0	0	14.20412559965577	-2.953408847718555	7.971896318881338	16.60864856787173	98.17330718421734	0	0
10.01999999999988	0.8319300706939758	0.1884108375314805	30.19576229043667	0	0.9399999999999999	0	44.91939473501802	-10.00006194909753	-10.00033973406277	54.89105404590756	0.9580296229912415	0	0	0	44.91939473501802	-10.00006194909753	-10.00033973406277	54.89105404590756	0.9580296229912415	0	0	0	0.6408744677827533	0.4989929651605794	4.012864630132131	16.48949025361728	-1.861218772656853	14.98533173666731	22.14911164734853	93.92529347692802	0	0	15.58882858356744	-2.98491338321725	8.368591532710628	16.82153297639983	97.30811116955761	0	0
10.03999999999987	0.9231042971700036	0.2861794590688235	30.30737452141645	0	0.9399999999999999	0	44.92028709355605	-10.00006032118316	-10.00033311715596	54.89211818951534	0.9580481958009115	0	0	0	44.92028709355605	-10.00006032118316	-10.00033311715596	54.89211818951534	0.9580481958009115	0	0	0	0.7750551060215022	0.522045231403274	3.812849547476426	18.16273576883501	-1.937988372068131	14.99547609160503	22.59498208895404	94.07662154341926	0	0	17.45478718940166	-3.431140445632378	6.751151725348125	17.56617079406084	98.66236513827609	0	0
10.05999999999987	0.9547485233723937	0.3729813442791046	30.41747879077471	0	0.9399999999999999	0	44.92118524184712	-10.00005871173886	-10.00032652257464	54.89319154623826	0.9580669294097748	0	0	0	44.92118524184712	-10.00005871173886	-10.00032652257464	54.89319154623826	0.9580669294097748	0	0	0	0.863815025397758	0.5371019894312627	3.563061460718189	22.16281515201409	-1.842862478283117	15.02336004034478	21.24537980348351	93.95207977446304	0	0	19.6294897765668	-4.132396777647932	4.4879015236214	18.72547585453762	101.6196054402632	0	0
10.07999999999987	1.022191658100258	0.4811236776727125	30.33596558431636	0	0.9399999999999999	0	44.921231751447	-10.00005859102505	-10.00032609156398	54.89323387475567	0.9580676681817709	0	0	0	44.921231751447	-10.00005859102505	-10.00032609156398	54.89323387475567	0.9580676681817709	0	0	0	0.9767345109780464	0.5945825939870716	3.56456211126415	22.06296480632512	-2.169388034078266	15.07550005097056	23.80963015194106	94.13866937323577	0	0	19.42930597599157	-4.163973973899255	4.407758711118073	19.99773247940562	101.9484463029872	0	0
10.09999999999987	1.113424576787295	0.6316231272506521	30.52430529352525	0	0.9399999999999999	0	44.92204084075519	-10.00005715314835	-10.00032017715514	54.89419890487061	0.9580845111346578	0	0	0	44.92204084075519	-10.00005715314835	-10.00032017715514	54.89419890487061	0.9580845111346578	0	0	0	1.141022214279635	0.658234125643515	3.302437497069686	24.19879272018126	-2.326751641180346	15.11668441469464	24.4636837971026	94.34971420548015	0	0	21.78523542417904	-4.804461494090035	1.94118662432533	19.88324452633628	104.1889817060101	0	0
10.11999999999987	1.19415628810531	0.7516401528764729	30.49313135142367	0	0.9399999999999999	0	44.92296012152032	-10.00005553139192	-10.00031347365674	54.89528550276377	0.9581034758455386	0	0	0	44.92296012152032	-10.00005553139192	-10.00031347365674	54.89528550276377	0.9581034758455386	0	0	0	1.271199342718344	0.7178351194039236	3.214635982827104	28.95151938645534	-2.203911742499616	15.52036795806698	23.10947563561718	94.03407363617525	0	0	21.55623110683162	-4.950898736259663	1.870719766804463	22.92389896727374	103.51456158216	0	0
10.13999999999987	1.303662467753222	0.8939556249752609	30.79654259547066	0	0.9399999999999999	0	44.92377412751645	-10.00005409732864	-10.00030753983188	54.89624204738725	0.9581201706986604	0	0	0	44.92377412751645	-10.00005409732864	-10.00030753983188	54.89624204738725	0.9581201706986604	0	0	0	1.436796890258224	0.7903226792385043	2.851651229860638	28.78973223367181	-2.603089707966847	15.52513292180038	26.45343799746641	94.36405733973218	0	0	26.45137545975821	-5.848875370495305	-0.2151475011035329	20.87597387411626	104.9783856662992	0	0
10.15999999999987	1.447372881159374	1.077708616896997	30.7259700203212	0	0.9399999999999999	0	44.92382118472496	-10.00005398108594	-10.00030711545748	54.89628511963578	0.9581209224512137	0	0	0	44.92382118472496	-10.00005398108594	-10.00030711545748	54.89628511963578	0.9581209224512137	0	0	0	1.654570364583633	0.873969661101418	2.864451642946487	28.35379247165048	-2.701120603407094	15.64113783438119	26.44297393448255	94.36063587823088	0	0	26.04341311931405	-5.975012011965259	-0.222234682419793	24.35239588376838	104.9178329872231	0	0
10.17999999999987	1.58858470859699	1.243473012702643	30.69198489305756	0	0.9399999999999999	0	44.92471203490252	-10.00005246346964	-10.00030074236174	54.8973421611077	0.9581393713052287	0	0	0	44.92471203490252	-10.00005246346964	-10.00030074236174	54.8973421611077	0.9581393713052287	0	0	0	1.86286215365511	0.932298650968901	2.877129707292084	28.09816564444254	-3.075909193864632	15.56763001955628	30.03286352299594	94.78577786959893	0	0	31.31359890819741	-6.692228233028459	0.473519513188666	23.09005329720696	103.849815240594	0	0
